<svg width="38" height="38" viewBox="0 0 42 42" fill="none" xmlns="http://www.w3.org/2000/svg">
<path d="M21 11.3077C19.083 11.3077 17.2091 11.8761 15.6152 12.9411C14.0213 14.0061 12.7791 15.5199 12.0455 17.2909C11.3119 19.062 11.1199 21.0108 11.4939 22.8909C11.8679 24.771 12.791 26.498 14.1465 27.8535C15.502 29.209 17.229 30.1321 19.1091 30.5061C20.9892 30.8801 22.938 30.6881 24.7091 29.9545C26.4801 29.2209 27.9939 27.9786 29.0589 26.3848C30.1239 24.7909 30.6923 22.917 30.6923 21C30.6896 18.4303 29.6676 15.9665 27.8505 14.1495C26.0335 12.3324 23.5697 11.3104 21 11.3077ZM21 27.4615C19.722 27.4615 18.4728 27.0826 17.4102 26.3726C16.3476 25.6626 15.5194 24.6534 15.0303 23.4727C14.5413 22.292 14.4133 20.9928 14.6626 19.7394C14.9119 18.486 15.5273 17.3347 16.431 16.431C17.3347 15.5273 18.486 14.9119 19.7394 14.6626C20.9928 14.4133 22.292 14.5413 23.4727 15.0303C24.6534 15.5194 25.6626 16.3476 26.3726 17.4102C27.0826 18.4728 27.4615 19.722 27.4615 21C27.4615 22.7137 26.7808 24.3572 25.569 25.569C24.3572 26.7808 22.7137 27.4615 21 27.4615ZM30.6923 0H11.3077C8.30969 0.00320699 5.4354 1.19558 3.31549 3.31549C1.19558 5.4354 0.00320699 8.30969 0 11.3077V30.6923C0.00320699 33.6903 1.19558 36.5646 3.31549 38.6845C5.4354 40.8044 8.30969 41.9968 11.3077 42H30.6923C33.6903 41.9968 36.5646 40.8044 38.6845 38.6845C40.8044 36.5646 41.9968 33.6903 42 30.6923V11.3077C41.9968 8.30969 40.8044 5.4354 38.6845 3.31549C36.5646 1.19558 33.6903 0.00320699 30.6923 0ZM38.7692 30.6923C38.7692 32.8344 37.9183 34.8888 36.4036 36.4036C34.8888 37.9183 32.8344 38.7692 30.6923 38.7692H11.3077C9.16556 38.7692 7.11116 37.9183 5.59645 36.4036C4.08173 34.8888 3.23077 32.8344 3.23077 30.6923V11.3077C3.23077 9.16556 4.08173 7.11116 5.59645 5.59645C7.11116 4.08173 9.16556 3.23077 11.3077 3.23077H30.6923C32.8344 3.23077 34.8888 4.08173 36.4036 5.59645C37.9183 7.11116 38.7692 9.16556 38.7692 11.3077V30.6923ZM33.9231 10.5C33.9231 10.9792 33.781 11.4477 33.5147 11.8462C33.2485 12.2447 32.87 12.5552 32.4273 12.7386C31.9845 12.922 31.4973 12.97 31.0273 12.8765C30.5573 12.783 30.1255 12.5522 29.7866 12.2134C29.4478 11.8745 29.217 11.4428 29.1235 10.9727C29.03 10.5027 29.078 10.0155 29.2614 9.57273C29.4448 9.12997 29.7553 8.75154 30.1538 8.48528C30.5523 8.21903 31.0208 8.07692 31.5 8.07692C32.1426 8.07692 32.759 8.33221 33.2134 8.78663C33.6678 9.24104 33.9231 9.85736 33.9231 10.5Z" fill="white"/>
</svg>
