<svg width="38" height="38" viewBox="0 0 42 38" fill="none" xmlns="http://www.w3.org/2000/svg">
<path d="M41.8813 5.62819C41.7636 5.34392 41.5642 5.10093 41.3084 4.92995C41.0527 4.75896 40.7519 4.66767 40.4443 4.66761H34.5271C33.6998 3.26013 32.5224 2.09066 31.1094 1.27289C29.6964 0.455125 28.0958 0.016887 26.4632 0.000784628C25.247 -0.0151685 24.0398 0.212296 22.9128 0.669795C21.7857 1.12729 20.7615 1.80558 19.9005 2.66476C19.0144 3.53439 18.311 4.57242 17.8318 5.71781C17.3526 6.8632 17.1073 8.09284 17.1102 9.33443V10.5186C9.28156 8.45356 2.8783 2.0853 2.81024 2.01724C2.60154 1.80669 2.33702 1.66016 2.04783 1.59491C1.75864 1.52965 1.45683 1.54839 1.17794 1.64891C0.899043 1.74944 0.654679 1.92756 0.473625 2.16231C0.29257 2.39706 0.182365 2.67866 0.155985 2.97394C-0.682098 12.2667 2.01688 18.4853 4.4339 22.0651C5.61243 23.8348 7.04612 25.4205 8.68849 26.7708C5.727 30.1796 1.06407 31.9704 1.01351 31.9899C0.794005 32.0721 0.595914 32.2029 0.434042 32.3724C0.272169 32.5419 0.1507 32.7458 0.0787119 32.9689C0.00672325 33.192 -0.0139237 33.4284 0.0183131 33.6606C0.05055 33.8928 0.134837 34.1147 0.264877 34.3097C0.410715 34.5275 0.994068 35.2917 2.41939 36.0053C4.18112 36.8881 6.50869 37.3353 9.33212 37.3353C23.074 37.3353 34.5563 26.7533 35.7288 13.1379L41.5449 7.3238C41.7623 7.10613 41.9104 6.82885 41.9703 6.52703C42.0301 6.22521 41.9992 5.91241 41.8813 5.62819ZM33.131 11.347C32.8643 11.6143 32.7039 11.9696 32.6798 12.3465C31.8884 24.6144 21.637 34.2241 9.33212 34.2241C7.27872 34.2241 5.83201 33.9519 4.81697 33.6252C7.0551 32.4099 10.176 30.3196 12.1828 27.3095C12.3006 27.1325 12.3808 26.9332 12.4186 26.724C12.4563 26.5148 12.4508 26.3 12.4023 26.093C12.3539 25.886 12.2635 25.6911 12.1367 25.5204C12.01 25.3497 11.8496 25.2068 11.6655 25.1005C11.5741 25.048 3.12719 19.9787 3.10969 6.43322C6.22091 8.96108 11.9086 12.8832 18.4071 13.976C18.6299 14.0135 18.8581 14.0021 19.076 13.9426C19.2938 13.883 19.4961 13.7767 19.6688 13.6311C19.8414 13.4855 19.9803 13.304 20.0757 13.0993C20.1711 12.8945 20.2208 12.6715 20.2214 12.4456V9.33443C20.2196 8.50461 20.3839 7.68282 20.7045 6.91742C21.025 6.15203 21.4955 5.45849 22.0881 4.87761C22.6562 4.30845 23.3326 3.85895 24.0774 3.55569C24.8222 3.25243 25.6203 3.10156 26.4244 3.112C28.8861 3.14311 31.1865 4.64427 32.149 6.8474C32.2703 7.12439 32.4698 7.36 32.7229 7.52543C32.976 7.69085 33.2719 7.7789 33.5743 7.77882H36.6855L33.131 11.347Z" fill="white"/>
</svg>
