<svg width="38" height="38" viewBox="0 0 42 42" fill="none" xmlns="http://www.w3.org/2000/svg">
<path d="M21 0C16.8466 0 12.7865 1.23163 9.33303 3.53914C5.8796 5.84665 3.18798 9.1264 1.59854 12.9636C0.00909897 16.8009 -0.406771 21.0233 0.403518 25.0969C1.21381 29.1705 3.21386 32.9123 6.15077 35.8492C9.08767 38.7861 12.8295 40.7862 16.9031 41.5965C20.9767 42.4068 25.1991 41.9909 29.0364 40.4015C32.8736 38.812 36.1534 36.1204 38.4609 32.667C40.7684 29.2135 42 25.1534 42 21C41.9941 15.4323 39.7797 10.0942 35.8427 6.15725C31.9058 2.22026 26.5677 0.00587963 21 0ZM22.6154 38.6945V25.8461H27.4615C27.89 25.8461 28.3008 25.676 28.6038 25.373C28.9067 25.0701 29.0769 24.6592 29.0769 24.2308C29.0769 23.8023 28.9067 23.3915 28.6038 23.0885C28.3008 22.7856 27.89 22.6154 27.4615 22.6154H22.6154V17.7692C22.6154 16.9124 22.9558 16.0906 23.5617 15.4847C24.1675 14.8788 24.9893 14.5385 25.8462 14.5385H29.0769C29.5054 14.5385 29.9162 14.3683 30.2192 14.0653C30.5221 13.7624 30.6923 13.3515 30.6923 12.9231C30.6923 12.4946 30.5221 12.0838 30.2192 11.7808C29.9162 11.4779 29.5054 11.3077 29.0769 11.3077H25.8462C24.1325 11.3077 22.4889 11.9885 21.2772 13.2002C20.0654 14.412 19.3846 16.0555 19.3846 17.7692V22.6154H14.5385C14.11 22.6154 13.6992 22.7856 13.3962 23.0885C13.0933 23.3915 12.9231 23.8023 12.9231 24.2308C12.9231 24.6592 13.0933 25.0701 13.3962 25.373C13.6992 25.676 14.11 25.8461 14.5385 25.8461H19.3846V38.6945C14.8308 38.2788 10.6126 36.1236 7.60733 32.6771C4.60206 29.2307 3.04112 24.7583 3.24918 20.1903C3.45725 15.6224 5.41831 11.3104 8.72445 8.15144C12.0306 4.99247 16.4273 3.22964 21 3.22964C25.5727 3.22964 29.9694 4.99247 33.2756 8.15144C36.5817 11.3104 38.5428 15.6224 38.7508 20.1903C38.9589 24.7583 37.3979 29.2307 34.3927 32.6771C31.3874 36.1236 27.1692 38.2788 22.6154 38.6945Z" fill="white"/>
</svg>
