<svg width="52" height="52" viewBox="0 0 52 52" fill="none" xmlns="http://www.w3.org/2000/svg">
<path d="M16.9446 50.3946L17.0784 50.0563L17.1196 49.9864L17.2123 49.851L17.3112 49.7157L17.435 49.5656L17.6041 49.3798L17.8001 49.1956L18.0128 49.0158L18.1325 48.9223L18.2564 48.8362L18.3514 48.7664L18.4753 48.6848L18.7212 48.5379L18.9815 48.394L19.2572 48.2554L19.504 48.1423L19.7853 48.0285L20.3064 47.8236L20.5938 47.717L20.9039 47.609L21.1789 47.5187L21.3381 47.47L21.489 47.4256L21.6462 47.3828L21.8199 47.3385L21.9833 47.2986L22.1591 47.2618L22.3163 47.2309L22.4879 47.2008L22.6535 47.1736L22.85 47.1442L23.2038 47.1018L23.5576 47.0654L23.899 47.0378L24.2612 47.0133L24.8201 46.9821L25.3997 46.961L25.6789 46.9555L25.9648 46.9576L26.5345 46.9723L27.1792 47.0019L27.8333 47.0488L28.4899 47.1048L29.1592 47.1717L29.7906 47.2476L30.4474 47.3399L31.1067 47.4431L31.7585 47.5609L32.3196 47.669L32.9025 47.797L33.4869 47.9449L33.7913 48.0269L34.1059 48.1181L34.7005 48.308L34.9807 48.4124L35.2653 48.5277L35.5304 48.6414L35.8043 48.7675L36.3285 49.0206L36.8219 49.2824L37.0861 49.4265L37.3099 49.5626L37.5351 49.7006L37.7543 49.8384L38.1378 50.1445L38.4585 50.4196L38.7931 50.8068" stroke="white" stroke-width="2.3" stroke-linejoin="round" stroke-dasharray="4 8 12 16"/>
<path d="M24.0945 42.8106L24.0945 40.2441L23.9275 37.5565L23.422 34.0174L22.9164 31.2766L22.464 28.6954L21.7721 26.2739L20.9472 24.0653L20.1223 21.9897L19.3506 20.0472L18.3521 17.8418L17.5054 15.847L16.299 13.8373L15.1016 12.127L13.7112 10.7752" stroke="white" stroke-width="2.3" stroke-linecap="round" stroke-linejoin="round"/>
<path d="M30.5666 43.5597L30.4294 41.9017L30.4637 40.1807L30.6228 38.6843L30.7839 37.2986L31.0588 35.5528L31.4452 33.9801L31.7149 32.679L32.0224 31.3313L32.4639 29.9339L33.0733 28.3271L33.5852 26.6996L34.2025 25.1472L34.8711 23.7066L35.8891 22.2831L36.922 21.0851L38.171 20.1731" stroke="white" stroke-width="2.3" stroke-linecap="round" stroke-linejoin="round"/>
<path d="M13.6074 10.7661L13.3672 12.393L12.9291 14.0542L12.4545 15.3868L12.0894 16.0439L11.676 16.7211L10.9028 17.7051L9.89311 18.9753L8.6567 20.1879L7.27763 21.1509" stroke="white" stroke-width="2.3" stroke-linecap="round"/>
<path d="M38.7754 18.646L39.0156 20.2729L39.4537 21.9341L39.9284 23.2667L40.2934 23.9238L40.7068 24.601L41.48 25.585L42.4897 26.8552L43.7261 28.0678L45.1052 29.0308" stroke="white" stroke-width="2.3" stroke-linecap="round"/>
<path d="M24.6665 10.0399L23.0331 8.28411L21.8746 7.38052L20.8588 6.81068L20.3983 6.62024L19.8637 6.50687L19.3295 6.44224L18.8032 6.44224L18.2995 6.50687L17.8305 6.62024L17.1258 6.81068L15.9557 7.3574" stroke="white" stroke-width="2.3" stroke-linecap="round" stroke-linejoin="round"/>
<path d="M27.0745 17.9401L29.349 16.1642L30.5075 15.2606L31.5233 14.6908L31.9838 14.5004L32.5184 14.387L33.0525 14.3224L33.5789 14.3224L34.0825 14.387L34.5515 14.5004L35.2563 14.6908L36.4264 15.2375" stroke="white" stroke-width="2.3" stroke-linecap="round" stroke-linejoin="round"/>
<path d="M13.791 10.7574L16.6693 11.3024L18.1537 11.4893L19.6998 11.489L20.9863 11.3766L22.4212 11.0921L23.6087 10.7334L24.6848 10.152" stroke="white" stroke-width="2.3" stroke-linecap="round" stroke-linejoin="round"/>
<path d="M38.5915 18.6539L35.7131 19.1989L34.2288 19.3858L32.6826 19.3856L31.3961 19.2731L29.9613 18.9886L28.7738 18.6299L27.0853 17.9192" stroke="white" stroke-width="2.3" stroke-linecap="round" stroke-linejoin="round"/>
<path d="M1.72805 15.762L3.10619 15.3152L4.57968 14.6824L5.86767 13.9447L7.46163 12.8243L8.82925 11.6513" stroke="white" stroke-width="2.3" stroke-linecap="round" stroke-linejoin="round"/>
<path d="M50.6548 23.6419L49.2766 23.1951L47.8031 22.5623L46.5151 21.8245L44.9212 20.7042L43.5536 19.5311" stroke="white" stroke-width="2.3" stroke-linecap="round" stroke-linejoin="round"/>
<path d="M15.9324 7.19666L17.3105 6.74978L18.5665 6.17163L19.8824 5.25984L21.2579 4.09553L22.2483 3.18062L23.3307 2.04765" stroke="white" stroke-width="2.3" stroke-linecap="round" stroke-linejoin="round"/>
<path d="M36.4504 15.0765L35.0723 14.6297L33.8163 14.0515L32.5005 13.1397L31.1249 11.9754L30.1345 11.0605L29.0521 9.92753" stroke="white" stroke-width="2.3" stroke-linecap="round" stroke-linejoin="round"/>
<path d="M11.6789 8.10156L11.6804 7.39012L11.6804 6.7298L12.0318 5.64847L12.8176 4.49984L13.8072 3.43405L14.4078 2.96655L15.3023 2.47256L16.3971 2.01862L17.6388 1.67149L18.9205 1.59138L20.576 1.67149L22.0313 1.8584L23.3229 1.97938" stroke="white" stroke-width="2.3" stroke-linecap="round" stroke-linejoin="round"/>
<path d="M40.7039 15.9814L40.7024 15.27L40.3823 13.9193L39.6323 12.6543L38.5756 11.3139L37.2379 10.2056L36.0046 9.55137L34.8998 9.21631L33.4623 9.21631L31.7766 9.41157L30.3515 9.73829L29.0599 9.85927" stroke="white" stroke-width="2.3" stroke-linecap="round" stroke-linejoin="round"/>
<path d="M1.56361 15.7782L1.78535 14.766L2.07436 13.056L2.19061 11.5748L2.51705 10.211L3.08743 8.94718L4.08006 7.89961L5.18366 7.22645L6.17825 6.87138L6.93757 6.78584L7.4712 6.72371L7.91658 6.72309L8.36415 6.7535L8.81995 6.79472L9.28996 6.87138L10.1106 7.07853L11.3927 7.90033" stroke="white" stroke-width="2.3" stroke-linecap="round" stroke-linejoin="round"/>
<path d="M50.826 23.6516L50.2947 22.7214L49.5417 20.6139L49.0121 19.0509L48.5342 17.6946L47.6665 16.6254L46.2294 15.5698L44.7569 15.0273L43.3102 15.0273L42.0417 15.3535L40.9969 15.7737" stroke="white" stroke-width="2.3" stroke-linecap="round" stroke-linejoin="round"/>
<path d="M7.24611 21.1165L7.24611 19.2908L7.24611 17.8851L7.24611 16.7606L7.35574 15.3532L7.54255 14.0086L7.89854 13.0772L8.94336 11.6582" stroke="white" stroke-width="2.3" stroke-linecap="round" stroke-linejoin="round"/>
<path d="M45.1367 28.9964L45.1367 27.1707L45.1367 25.765L45.1367 24.6404L45.0271 23.2331L44.8403 21.8885L44.4843 20.9571L43.4394 19.5381" stroke="white" stroke-width="2.3" stroke-linecap="round" stroke-linejoin="round"/>
</svg>
